<svg preserveAspectRatio="none" width="100%" height="100%" overflow="visible" style="display: block;" viewBox="0 0 50.88 50.88" fill="none" xmlns="http://www.w3.org/2000/svg">
<g id="ri:behance-fill">
<path id="Vector" d="M15.7792 11.3413C17.1339 11.3413 18.3868 11.4473 19.5316 11.7611C20.6785 11.9709 21.6177 12.3907 22.4508 12.9143C23.2861 13.4387 23.9115 14.1729 24.327 15.117C24.7447 16.0604 24.9545 17.2158 24.9545 18.473C24.9545 19.9421 24.6408 21.1993 23.9115 22.1427C23.2861 23.0882 22.2431 23.9256 20.9923 24.5553C22.7646 25.081 24.1193 26.0244 24.9545 27.2816C25.7898 28.5387 26.3092 30.1139 26.3092 31.8968C26.3092 33.366 25.9955 34.6231 25.4739 35.6725C24.9545 36.7219 24.1193 37.6653 23.1801 38.295C22.1595 38.9691 21.0319 39.4651 19.8453 39.762C18.5945 40.0779 17.3437 40.2878 16.0929 40.2878H2.12003V11.3413H15.7792ZM14.9439 23.0861C16.0908 23.0861 17.03 22.7723 17.7593 22.2487C18.4885 21.7251 18.8023 20.7795 18.8023 19.6263C18.8023 18.9966 18.6963 18.367 18.4885 17.9493C18.2808 17.5317 17.967 17.2137 17.5515 16.8999C17.1266 16.6613 16.6697 16.485 16.1947 16.3763C15.6732 16.2703 15.1538 16.2703 14.5263 16.2703H8.48003V23.0882L14.9439 23.0861ZM15.2577 35.4627C15.8831 35.4627 16.5085 35.3567 17.03 35.2528C17.5515 35.1468 18.073 34.939 18.4885 34.6231C18.9117 34.3144 19.2667 33.9218 19.5316 33.4699C19.7393 32.9462 19.9492 32.3166 19.9492 31.5831C19.9492 30.1139 19.5316 29.0645 18.6984 28.331C17.8631 27.7013 16.7162 27.3876 15.3615 27.3876H8.48003V35.4648L15.2577 35.4627ZM35.3807 35.3567C36.2146 36.1962 37.4654 36.6159 39.1331 36.6159C40.28 36.6159 41.3231 36.3022 42.1562 35.7785C42.9915 35.1482 43.513 34.5185 43.7208 33.8896H48.83C47.9947 36.4061 46.7439 38.189 45.0776 39.3423C43.407 40.3917 41.4269 41.0213 39.0292 41.0213C37.4953 41.0236 35.9746 40.7388 34.5454 40.1818C33.2589 39.7019 32.112 38.9092 31.2085 37.8752C30.2383 36.9113 29.5222 35.7218 29.1246 34.4133C28.6031 33.0501 28.3932 31.5831 28.3932 29.904C28.3932 28.331 28.6031 26.8639 29.1246 25.4987C29.6248 24.1834 30.3677 22.9738 31.3145 21.9328C32.2516 20.9894 33.3985 20.152 34.6493 19.6263C36.0417 19.0672 37.5288 18.7822 39.0292 18.7867C40.8015 18.7867 42.3661 19.1026 43.7208 19.8361C45.0776 20.5697 46.1185 21.4092 46.9517 22.6685C47.7869 23.8217 48.4145 25.1849 48.83 26.6541C49.0378 28.1211 49.1416 29.5903 49.0377 31.2672H33.92C33.92 32.9462 34.5454 34.5193 35.3807 35.3588M41.9485 24.3475C41.2192 23.614 40.0723 23.1942 38.7155 23.1942C37.9199 23.1823 37.1332 23.3619 36.4216 23.7179C35.7962 24.0337 35.3807 24.4535 34.9631 24.8733C34.5769 25.277 34.3226 25.7887 34.2338 26.3403C34.1278 26.8661 34.0239 27.2837 34.0239 27.7035H43.407C43.1993 26.1304 42.6777 25.0831 41.9485 24.3475ZM32.7731 13.3341H44.4501V16.1664H32.7752L32.7731 13.3341Z" fill="var(--fill-0, black)"/>
</g>
</svg>
