<svg preserveAspectRatio="none" width="100%" height="100%" overflow="visible" style="display: block;" viewBox="0 0 42.4002 46.2474" fill="none" xmlns="http://www.w3.org/2000/svg">
<g id="Group">
<g id="Vector">
</g>
<path id="Vector_2" fill-rule="evenodd" clip-rule="evenodd" d="M21.2 0C32.9088 0 42.4 9.49124 42.4 21.2C42.4 32.9088 32.9088 42.4 21.2 42.4C9.49124 42.4 0 32.9088 0 21.2C0 9.49124 9.49124 0 21.2 0ZM24.628 25.4061C19.2241 26.9972 14.4998 30.3342 11.1936 34.8952C14.0957 37.0224 17.6018 38.1664 21.2 38.16C23.4011 38.1615 25.5814 37.7345 27.6194 36.9028C26.9501 32.992 25.9494 29.1452 24.628 25.404V25.4061ZM28.8214 24.5517C29.9492 27.8229 30.8566 31.1979 31.5223 34.6599C34.6331 32.2755 36.8221 28.8872 37.7169 25.0711C34.8048 24.3804 31.7942 24.2046 28.8214 24.5517ZM21.9441 18.8934C16.2716 20.895 10.2245 21.6076 4.24212 20.9795L4.24 21.2C4.24 25.2852 5.68584 29.0334 8.09204 31.9611C11.8574 26.9631 17.1042 23.2811 23.0847 21.4396C22.7214 20.5841 22.3412 19.7359 21.9441 18.8956V18.8934ZM34.9546 11.2763C32.2093 13.6748 29.1512 15.6895 25.864 17.2653C26.3601 18.3253 26.8321 19.3973 27.2802 20.4813C30.8842 19.9301 34.5942 20.0446 38.1558 20.8226C38.085 17.3889 36.9682 14.0585 34.9546 11.2763ZM13.9369 5.8724C11.7211 6.92547 9.75946 8.44558 8.18663 10.3284C6.61381 12.2111 5.46706 14.412 4.82512 16.7798C9.94578 17.2979 15.1181 16.7198 19.998 15.0838C18.2231 11.8586 16.1964 8.77862 13.9369 5.8724ZM21.2 4.24C20.181 4.24 19.1881 4.32692 18.2214 4.50076C20.3441 7.35236 22.2592 10.3528 23.9518 13.479C26.8819 12.0841 29.6103 10.2999 32.0629 8.17472C29.0168 5.62745 25.1708 4.23438 21.2 4.24Z" fill="var(--fill-0, black)"/>
</g>
</svg>
