<svg preserveAspectRatio="none" width="100%" height="100%" overflow="visible" style="display: block;" viewBox="0 0 43.3198 34.495" fill="none" xmlns="http://www.w3.org/2000/svg">
<g id="Group">
<path id="Vector" d="M4.00165 33.4316H12.8299V3.73194L10.1248 1.9996C6.21039 -0.505635 1.06 2.29943 1.06 6.93678V30.5033C1.06 32.1224 2.37925 33.435 4.00498 33.435" stroke="var(--stroke-0, black)" stroke-width="2.12" stroke-linecap="round" stroke-linejoin="round"/>
<path id="Vector_2" d="M1.06 6.93738V10.8551L12.8299 18.3942L21.6582 24.0509L30.4865 18.3942L42.2598 10.8551V6.93405C42.2598 2.2967 37.1061 -0.508359 33.1883 2.00354L30.4898 3.73588L21.6582 9.38931L12.8299 3.73255L10.1248 2.00021C6.21039 -0.505027 1.06 2.30004 1.06 6.93738Z" stroke="var(--stroke-0, black)" stroke-width="2.12" stroke-linecap="round" stroke-linejoin="round"/>
<path id="Vector_3" d="M30.4874 33.4322H39.3157C39.7015 33.4336 40.0838 33.3587 40.4406 33.212C40.7975 33.0652 41.1218 32.8495 41.3951 32.5771C41.6684 32.3048 41.8853 31.9811 42.0332 31.6248C42.1812 31.2685 42.2573 30.8864 42.2573 30.5006V6.93405C42.2573 2.2967 37.1069 -0.508359 33.1892 2.00354L30.4907 3.73588L30.4874 33.4322Z" stroke="var(--stroke-0, black)" stroke-width="2.12" stroke-linecap="round" stroke-linejoin="round"/>
</g>
</svg>
