<svg preserveAspectRatio="none" width="100%" height="100%" overflow="visible" style="display: block;" viewBox="0 0 50.88 50.88" fill="none" xmlns="http://www.w3.org/2000/svg">
<g id="line-md:instagram">
<g id="Group">
<path id="Vector" d="M33.9196 6.36079C39.7708 6.36079 44.5196 11.1096 44.5196 16.9608V33.9208C44.5196 39.772 39.7708 44.5208 33.9196 44.5208H16.9596C11.1084 44.5208 6.3596 39.772 6.3596 33.9208V16.9608C6.3596 11.1096 11.1084 6.36079 16.9596 6.36079H25.4396H33.9196Z" stroke="var(--stroke-0, black)" stroke-width="4.24" stroke-linecap="round" stroke-linejoin="round"/>
<path id="Vector_2" d="M25.4391 16.9602C30.1243 16.9602 33.9191 20.755 33.9191 25.4402C33.9191 30.1254 30.1243 33.9202 25.4391 33.9202C20.7539 33.9202 16.9591 30.1254 16.9591 25.4402C16.9591 20.755 20.7539 16.9602 25.4391 16.9602Z" stroke="var(--stroke-0, black)" stroke-width="4.24" stroke-linecap="round" stroke-linejoin="round"/>
</g>
<path id="Vector_3" d="M36.0396 18.0198C37.7959 18.0198 39.2196 16.5961 39.2196 14.8398C39.2196 13.0835 37.7959 11.6598 36.0396 11.6598C34.2834 11.6598 32.8596 13.0835 32.8596 14.8398C32.8596 16.5961 34.2834 18.0198 36.0396 18.0198Z" fill="var(--fill-0, black)"/>
</g>
</svg>
