<svg preserveAspectRatio="none" width="100%" height="100%" overflow="visible" style="display: block;" viewBox="0 0 42.4002 46.2454" fill="none" xmlns="http://www.w3.org/2000/svg">
<g id="Group">
<g id="Vector">
</g>
<path id="Vector_2" fill-rule="evenodd" clip-rule="evenodd" d="M21.2 0.000205592C9.49124 0.000205592 0 9.49145 0 21.2002C0 32.909 9.49124 42.4002 21.2 42.4002C32.9088 42.4002 42.4 32.909 42.4 21.2002C42.4 9.49145 32.9088 0.000205592 21.2 0.000205592ZM4.24 21.2002C4.24069 17.6705 5.34266 14.2289 7.39232 11.3552C9.44197 8.4815 12.3372 6.31893 15.6743 5.16891C19.0115 4.01889 22.6243 3.93874 26.0092 4.93964C29.394 5.94053 32.3823 7.97259 34.5574 10.7525C36.7324 13.5325 37.9859 16.9218 38.1432 20.4481C38.3004 23.9743 37.3535 27.4618 35.4344 30.4243C33.5154 33.3868 30.7198 35.6767 27.4375 36.9749C24.1551 38.273 20.5495 38.5147 17.1232 37.6662L18.6454 30.5134C20.1018 31.7769 21.9102 32.2581 23.6465 32.2263C25.5502 32.1903 27.4625 31.5479 29.0631 30.5409C30.6573 29.5382 32.082 28.0817 32.8621 26.2861C33.7054 24.3503 34.0535 22.2351 33.8751 20.1313C33.6967 18.0274 32.9974 16.001 31.8402 14.2349C30.6831 12.4688 29.1045 11.0185 27.2468 10.0149C25.3892 9.01122 23.3109 8.4858 21.1994 8.486C19.088 8.48619 17.0098 9.01198 15.1523 10.016C13.2949 11.0199 11.7165 12.4705 10.5597 14.2368C9.40286 16.0031 8.7039 18.0296 8.52589 20.1336C8.34787 22.2375 8.69639 24.3526 9.54 26.2882C9.64556 26.5517 9.80297 26.7914 10.0029 26.9929C10.2028 27.1945 10.4412 27.3538 10.7039 27.4615C10.9665 27.5692 11.2482 27.623 11.532 27.6198C11.8159 27.6165 12.0962 27.5563 12.3564 27.4427C12.6165 27.3291 12.8512 27.1644 13.0465 26.9584C13.2419 26.7524 13.3938 26.5092 13.4933 26.2434C13.5929 25.9775 13.6381 25.6944 13.6261 25.4107C13.6142 25.1271 13.5454 24.8488 13.4238 24.5922C12.9213 23.437 12.6825 22.1843 12.7248 20.9252C12.767 19.6662 13.0893 18.4323 13.6681 17.3134C14.2469 16.1945 15.0678 15.2185 16.071 14.4566C17.0743 13.6946 18.2347 13.1658 19.4679 12.9084C20.7011 12.6511 21.9762 12.6718 23.2004 12.969C24.4246 13.2661 25.5673 13.8324 26.5453 14.6264C27.5233 15.4205 28.312 16.4225 28.8543 17.5597C29.3965 18.6968 29.6786 19.9404 29.68 21.2002C29.68 23.5216 28.8108 25.6882 26.8032 26.9518C25.7686 27.6047 24.6005 27.9694 23.568 27.9863C22.5568 28.0075 21.783 27.7022 21.2466 27.1404C20.7209 26.5892 20.1421 25.525 20.1421 23.5322C20.1421 22.2602 20.6276 21.2002 21.2085 18.4612C21.2713 18.187 21.279 17.9032 21.2311 17.626C21.1832 17.3489 21.0806 17.0841 20.9293 16.847C20.7781 16.6099 20.5812 16.4053 20.35 16.2451C20.1189 16.0848 19.8582 15.9722 19.5831 15.9137C19.3081 15.8552 19.0241 15.852 18.7478 15.9043C18.4714 15.9566 18.2083 16.0634 17.9736 16.2184C17.739 16.3734 17.5375 16.5736 17.3809 16.8072C17.2244 17.0408 17.1159 17.3033 17.0618 17.5792L13.1186 36.1144C10.4325 34.6586 8.18965 32.5043 6.62685 29.8791C5.06405 27.2539 4.23939 24.2554 4.24 21.2002Z" fill="var(--fill-0, black)"/>
</g>
</svg>
