<svg preserveAspectRatio="none" width="100%" height="100%" overflow="visible" style="display: block;" viewBox="0 0 50.88 50.88" fill="none" xmlns="http://www.w3.org/2000/svg">
<g id="mdi:spotify">
<path id="Vector" d="M37.9483 23.1076C31.1643 19.0796 19.8223 18.6556 13.3563 20.6696C12.2963 20.9876 11.2363 20.3516 10.9183 19.3976C10.6003 18.3376 11.2363 17.2776 12.1903 16.9596C19.7163 14.7336 32.1183 15.1576 39.9623 19.8216C40.9163 20.3516 41.2343 21.6236 40.7043 22.5776C40.1743 23.3196 38.9023 23.6376 37.9483 23.1076ZM37.7363 29.0436C37.2063 29.7856 36.2523 30.1036 35.5103 29.5736C29.7863 26.0756 21.0943 25.0156 14.4163 27.1356C13.5683 27.3476 12.6143 26.9236 12.4023 26.0756C12.1903 25.2276 12.6143 24.2736 13.4623 24.0616C21.2003 21.7296 30.7403 22.8956 37.3123 26.9236C37.9483 27.2416 38.2663 28.3016 37.7363 29.0436ZM35.1923 34.8736C34.7683 35.5096 34.0263 35.7216 33.3903 35.2976C28.4083 32.2236 22.1543 31.5876 14.7343 33.2836C13.9923 33.4956 13.3563 32.9656 13.1443 32.3296C12.9323 31.5876 13.4623 30.9516 14.0983 30.7396C22.1543 28.9376 29.1503 29.6796 34.6623 33.0716C35.4043 33.3896 35.5103 34.2376 35.1923 34.8736ZM25.4403 4.23958C22.6563 4.23958 19.8995 4.78793 17.3274 5.85333C14.7553 6.91873 12.4182 8.48031 10.4496 10.4489C6.47386 14.4247 4.24029 19.817 4.24029 25.4396C4.24029 31.0622 6.47386 36.4545 10.4496 40.4302C12.4182 42.3988 14.7553 43.9604 17.3274 45.0258C19.8995 46.0912 22.6563 46.6396 25.4403 46.6396C31.0629 46.6396 36.4552 44.406 40.431 40.4302C44.4067 36.4545 46.6403 31.0622 46.6403 25.4396C46.6403 22.6556 46.0919 19.8988 45.0265 17.3267C43.9611 14.7546 42.3996 12.4175 40.431 10.4489C38.4624 8.48031 36.1253 6.91873 33.5532 5.85333C30.9811 4.78793 28.2243 4.23958 25.4403 4.23958Z" fill="var(--fill-0, black)"/>
</g>
</svg>
